
<svg viewBox="0 0 116.36 38.3016683" version="1.1" xmlns="http://www.w3.org/2000/svg" xmlns:xlink="http://www.w3.org/1999/xlink">
  <g stroke="none" stroke-width="1" fill="none" fill-rule="evenodd">
    <g fill-rule="nonzero">
      <path d="M107.1,0 L8.2,0 L7.3,0.02 C6.65,0.02 6,0.08 5.35,0.19 C4.06415493,0.409970392 2.87328287,1.0088885 1.93,1.91 C1.00264139,2.81968069 0.395564334,4.00576188 0.2,5.29 C0.09,5.92 0.02,6.55 0,7.21 L0,8.09 L0,30.22 L0.01,31.1 C0.02,31.74 0.08,32.38 0.19,33.02 C0.411036331,34.2942915 1.02256076,35.4684184 1.94,36.38 C2.88342946,37.2827574 4.07378168,37.8848946 5.36,38.11 C6.01,38.22 6.66,38.28 7.31,38.29 C7.96324071,38.3055578 8.61675929,38.3055578 9.27,38.29 L109.04,38.29 C109.69,38.28 110.34,38.22 110.99,38.12 C113.650138,37.7437291 115.752374,35.6739599 116.17,33.02 C116.27,32.38 116.33,31.74 116.34,31.1 L116.34,30.22 C116.36,29.87 116.36,29.52 116.36,29.17 L116.36,9.13 L116.35,8.09 L116.35,7.21 C116.33,6.56 116.27,5.92 116.17,5.29 C115.714018,2.6559338 113.630844,0.604932345 110.99,0.19 C110.34,0.09 109.69,0.02 109.04,0.02 L108.14,0 L107.09,0 L107.1,0 Z" fill="#797979"></path>
      <path d="M8.21,37.46 L7.33,37.45 C6.73,37.45 6.11,37.39 5.51,37.29 C4.39456313,37.091354 3.36191691,36.5698155 2.54,35.79 C1.72449455,35.0114411 1.18996992,33.9845911 1.02,32.87 C0.92,32.27 0.87,31.67 0.86,31.07 L0.85,30.2 L0.85,8.09 L0.86,7.23 C0.86,6.63 0.92,6.03 1.02,5.43 C1.21356863,4.3232578 1.74446012,3.30338731 2.54,2.51 C3.34744159,1.70985846 4.38679601,1.18493198 5.51,1.01 C6.11,0.91 6.72,0.86 7.33,0.85 L109.03,0.85 C109.63,0.86 110.23,0.91 110.83,1.01 C113.124029,1.36311999 114.935792,3.14267371 115.33,5.43 C115.482854,6.30789094 115.539855,7.19979306 115.5,8.09 L115.5,31.09 C115.487184,31.6833923 115.430362,32.2750161 115.33,32.86 C115.062554,34.5485654 113.992625,36.0024768 112.46,36.76 C111.94,37.02 111.4,37.2 110.83,37.29 C110.23,37.39 109.63,37.44 109.02,37.45 L108.14,37.46 L8.21,37.46 L8.21,37.46 Z" fill="#171717"></path>
      <path d="M24.08,19.44 C24.0974269,17.8022732 24.9697265,16.2928155 26.38,15.46 C25.4820803,14.1967871 24.03948,13.4328393 22.49,13.4 C20.86,13.23 19.28,14.36 18.45,14.36 C17.6,14.36 16.32,13.41 14.94,13.44 C13.1368808,13.5014653 11.4927608,14.4879373 10.59,16.05 C8.71,19.25 10.11,23.97 11.91,26.56 C12.81,27.83 13.87,29.25 15.24,29.2 C16.59,29.14 17.1,28.35 18.73,28.35 C20.33,28.35 20.81,29.2 22.22,29.17 C23.66,29.14 24.58,27.89 25.45,26.61 C26.09,25.71 26.59,24.71 26.92,23.65 C25.219513,22.9373305 24.1039541,21.2836323 24.08,19.44 L24.08,19.44 Z M21.43,11.69 C22.2118146,10.7605865 22.5962104,9.56069693 22.5,8.35 C21.3,8.48 20.18,9.05 19.38,9.94 C18.5947086,10.8219563 18.1949963,11.9814823 18.27,13.16 C19.4879023,13.1698667 20.6452598,12.6297665 21.42,11.69 L21.43,11.69 Z M41.13,25.99 L36.53,25.99 L35.43,29.19 L33.48,29.19 L37.84,17.31 L39.86,17.31 L44.22,29.2 L42.24,29.2 L41.14,25.99 L41.13,25.99 Z M37.01,24.5 L40.66,24.5 L38.86,19.29 L38.81,19.29 L37,24.5 L37.01,24.5 Z M53.64,24.87 C53.64,27.56 52.17,29.29 49.96,29.29 C48.8241262,29.345285 47.753499,28.7577928 47.19,27.77 L47.15,27.77 L47.15,32.07 L45.35,32.07 L45.35,20.53 L47.09,20.53 L47.09,21.97 L47.13,21.97 C47.7090675,20.9819496 48.7857037,20.3936448 49.93,20.44 C52.16,20.44 53.63,22.18 53.63,24.87 L53.64,24.87 Z M51.78,24.87 C51.78,23.11 50.86,21.96 49.45,21.96 C48.07,21.96 47.15,23.14 47.15,24.86 C47.15,26.61 48.07,27.78 49.45,27.78 C50.85,27.78 51.78,26.64 51.78,24.87 L51.78,24.87 Z M63.32,24.87 C63.32,27.56 61.86,29.29 59.65,29.29 C58.5141262,29.345285 57.443499,28.7577928 56.88,27.77 L56.84,27.77 L56.84,32.07 L55.03,32.07 L55.03,20.53 L56.78,20.53 L56.78,21.97 L56.81,21.97 C57.3890675,20.9819496 58.4657037,20.3936448 59.61,20.44 C61.85,20.44 63.32,22.18 63.32,24.87 L63.32,24.87 Z M61.46,24.87 C61.46,23.11 60.54,21.96 59.14,21.96 C57.76,21.96 56.83,23.14 56.83,24.86 C56.83,26.61 57.76,27.78 59.13,27.78 C60.54,27.78 61.46,26.64 61.46,24.87 L61.46,24.87 Z M69.73,25.89 C69.86,27.07 71.03,27.84 72.62,27.84 C74.14,27.84 75.23,27.07 75.23,26 C75.23,25.08 74.57,24.53 73.01,24.15 L71.44,23.78 C69.23,23.25 68.2,22.23 68.2,20.58 C68.2,18.52 70.01,17.11 72.6,17.11 C75.14,17.11 76.9,18.52 76.95,20.57 L75.13,20.57 C75.02,19.39 74.03,18.67 72.57,18.67 C71.11,18.67 70.11,19.39 70.11,20.45 C70.11,21.29 70.75,21.78 72.31,22.16 L73.64,22.48 C76.11,23.06 77.14,24.04 77.14,25.78 C77.14,28 75.34,29.4 72.48,29.4 C69.8,29.4 68,28.04 67.88,25.89 L69.73,25.89 L69.73,25.89 Z M81.04,18.48 L81.04,20.53 L82.72,20.53 L82.72,21.94 L81.04,21.94 L81.04,26.72 C81.04,27.46 81.38,27.81 82.11,27.81 C82.31,27.81 82.51,27.79 82.71,27.77 L82.71,29.17 C82.38,29.23 82.04,29.25 81.71,29.25 C79.92,29.25 79.23,28.59 79.23,26.91 L79.23,21.94 L77.95,21.94 L77.95,20.54 L79.23,20.54 L79.23,18.48 L81.04,18.48 L81.04,18.48 Z M83.69,24.87 C83.69,22.14 85.32,20.42 87.86,20.42 C90.42,20.42 92.04,22.14 92.04,24.87 C92.04,27.6 90.42,29.31 87.86,29.31 C85.3,29.31 83.69,27.6 83.69,24.87 L83.69,24.87 Z M90.19,24.87 C90.19,22.99 89.33,21.89 87.86,21.89 C86.4,21.89 85.53,23 85.53,24.87 C85.53,26.74 86.4,27.84 87.86,27.84 C89.33,27.84 90.2,26.74 90.2,24.87 L90.19,24.87 Z M93.53,20.53 L95.25,20.53 L95.25,22.01 L95.29,22.01 C95.5453431,21.0571803 96.4241323,20.4063789 97.41,20.44 C97.62,20.44 97.83,20.46 98.03,20.51 L98.03,22.17 C97.767085,22.0935651 97.4936104,22.0598028 97.22,22.07 C96.6949841,22.0493895 96.1859698,22.2529952 95.82,22.63 C95.4571657,23.0126885 95.2815426,23.5358989 95.34,24.06 L95.34,29.2 L93.53,29.2 L93.53,20.53 L93.53,20.53 Z M106.36,26.65 C106.12,28.23 104.56,29.31 102.57,29.31 C100.01,29.31 98.42,27.61 98.42,24.91 C98.42,22.19 100.02,20.42 102.5,20.42 C104.93,20.42 106.46,22.07 106.46,24.7 L106.46,25.31 L100.25,25.31 L100.25,25.41 C100.188103,26.0592578 100.414836,26.7028886 100.87,27.17 C101.3242,27.6399557 101.956887,27.8944853 102.61,27.87 C103.482624,27.9487948 104.30655,27.4560546 104.65,26.65 L106.36,26.65 L106.36,26.65 Z M100.26,24.07 L104.66,24.07 C104.692296,23.4851656 104.474106,22.9142347 104.06,22.5 C103.650519,22.0817761 103.085074,21.8534233 102.5,21.87 C101.906526,21.8662875 101.335408,22.0961715 100.91,22.51 C100.490609,22.9210702 100.252974,23.4827536 100.25,24.07 L100.26,24.07 Z M36.78,8.36 C37.5449272,8.30493757 38.2951447,8.59038617 38.83,9.14 C39.3557494,9.68896884 39.6056168,10.44592 39.51,11.2 C39.51,13.03 38.51,14.07 36.78,14.07 L34.68,14.07 L34.68,8.37 L36.78,8.37 L36.78,8.36 Z M35.58,13.26 L36.68,13.26 C37.2270849,13.2957227 37.7618353,13.0869503 38.14,12.69 C38.5100278,12.2920613 38.6792579,11.7475816 38.6,11.21 C38.6732794,10.6772026 38.5003405,10.1399883 38.13,9.75 C37.7575661,9.34978384 37.2257046,9.13703924 36.68,9.17 L35.58,9.17 L35.58,13.27 L35.58,13.26 Z M40.53,11.92 C40.4726942,11.344803 40.6657984,10.7727773 41.06,10.35 C41.6614792,9.68574986 42.6220702,9.48394502 43.44,9.85 C43.9689015,10.0853515 44.3750835,10.5314264 44.56,11.08 C44.66,11.35 44.69,11.63 44.66,11.92 C44.7173058,12.495197 44.5242016,13.0672227 44.13,13.49 C43.5301407,14.149713 42.5752354,14.3511698 41.76,13.99 C41.2272966,13.7569076 40.8171935,13.3105121 40.63,12.76 C40.53,12.49 40.5,12.2 40.53,11.92 L40.53,11.92 Z M43.77,11.92 C43.77,10.98 43.35,10.44 42.6,10.44 C41.85,10.44 41.42,10.98 41.42,11.92 C41.42,12.86 41.85,13.4 42.6,13.4 C43.35,13.4 43.77,12.86 43.77,11.92 Z M50.15,14.07 L49.25,14.07 L48.35,10.9 L48.28,10.9 L47.38,14.07 L46.49,14.07 L45.29,9.77 L46.16,9.77 L46.95,13.05 L47,13.05 L47.9,9.76 L48.73,9.76 L49.63,13.06 L49.7,13.06 L50.48,9.76 L51.34,9.76 L50.14,14.07 L50.15,14.07 Z M52.37,9.76 L53.2,9.76 L53.2,10.45 L53.26,10.45 C53.4855911,9.93828082 54.0131675,9.62817868 54.57,9.68 C54.9998721,9.64711992 55.4218614,9.80857668 55.72,10.12 C56.0138211,10.4299843 56.1500682,10.8571372 56.09,11.28 L56.09,14.08 L55.22,14.08 L55.22,11.5 C55.22,10.8 54.92,10.46 54.28,10.46 C53.9890866,10.4440111 53.7052215,10.55319 53.5,10.76 C53.2950961,10.9729949 53.196072,11.2663994 53.23,11.56 L53.23,14.07 L52.37,14.07 L52.37,9.77 L52.37,9.76 Z M57.46,8.08 L58.33,8.08 L58.33,14.08 L57.46,14.08 L57.46,8.08 Z M59.53,11.92 C59.4726942,11.344803 59.6657984,10.7727773 60.06,10.35 C60.4532615,9.92168892 61.0085339,9.67853042 61.59,9.67999338 C62.1741791,9.6794128 62.732202,9.92218899 63.13,10.35 C63.5219405,10.7741231 63.7146917,11.345103 63.66,11.92 C63.7497221,12.8029056 63.2498066,13.6401625 62.43,13.98 C61.6137874,14.3316218 60.6646103,14.1313734 60.06,13.48 C59.6707697,13.0582917 59.4782191,12.4915391 59.53,11.92 L59.53,11.92 Z M62.77,11.92 C62.77,10.98 62.34,10.44 61.6,10.44 C60.84,10.44 60.42,10.98 60.42,11.92 C60.42,12.86 60.84,13.4 61.6,13.4 C62.34,13.4 62.77,12.86 62.77,11.92 Z M64.5699997,12.85 C64.5699997,12.08 65.16,11.63 66.2,11.57 L67.38,11.5 L67.38,11.13 C67.38,10.67 67.08,10.42 66.48,10.42 C66,10.42 65.67,10.59 65.58,10.9 L64.74,10.9 C64.83,10.16 65.54,9.68 66.53,9.68 C67.63,9.68 68.24,10.22 68.24,11.13 L68.24,14.07 L67.41,14.07 L67.41,13.47 L67.34,13.47 C67.058493,13.9169512 66.5575251,14.1769956 66.03,14.15 C65.4619114,14.2071532 64.9200017,13.898064 64.68,13.38 C64.6073533,13.2162726 64.5698789,13.0391206 64.5699997,12.86 L64.5699997,12.85 Z M67.38,12.49 L67.38,12.13 L66.31,12.19 C65.71,12.23 65.44,12.44 65.44,12.82 C65.44,13.2 65.78,13.42 66.24,13.42 C66.6607678,13.4639351 67.0668035,13.251062 67.27,12.88 C67.3342242,12.7558217 67.3716971,12.6195566 67.38,12.48 L67.38,12.49 Z M69.38,11.92 C69.38,10.55 70.09,9.69 71.2,9.69 C71.7548495,9.66789527 72.2742054,9.96245529 72.54,10.45 L72.6,10.45 L72.6,8.08 L73.47,8.08 L73.47,14.08 L72.64,14.08 L72.64,13.39 L72.57,13.39 C72.2924208,13.8806378 71.7631953,14.1742228 71.2,14.15 C70.08,14.15 69.38,13.28 69.38,11.92 L69.38,11.92 Z M70.28,11.92 C70.28,12.83 70.71,13.38 71.44,13.38 C72.17,13.38 72.62,12.82 72.62,11.92 C72.62,11.02 72.17,10.46 71.44,10.46 C70.71,10.46 70.27,11.01 70.27,11.92 L70.28,11.92 Z M77.04,11.92 C76.9826942,11.344803 77.1757984,10.7727773 77.57,10.35 C78.1714792,9.68574986 79.1320702,9.48394502 79.95,9.85 C80.4827034,10.0830924 80.8928065,10.5294879 81.08,11.08 C81.17,11.35 81.2,11.63 81.18,11.92 C81.2346459,12.4966967 81.0378265,13.0689308 80.64,13.49 C80.0401407,14.149713 79.0852354,14.3511698 78.27,13.99 C77.7372966,13.7569076 77.3271935,13.3105121 77.14,12.76 C77.04,12.49 77.01,12.2 77.04,11.92 L77.04,11.92 Z M80.28,11.92 C80.28,10.98 79.86,10.44 79.11,10.44 C78.36,10.44 77.94,10.98 77.94,11.92 C77.94,12.86 78.36,13.4 79.11,13.4 C79.86,13.4 80.28,12.86 80.28,11.92 Z M82.33,9.76 L83.16,9.76 L83.16,10.45 L83.23,10.45 C83.4543858,9.94200958 83.9766816,9.63264975 84.53,9.68 C84.9598721,9.64711992 85.3818614,9.80857668 85.68,10.12 C85.9738211,10.4299843 86.1100682,10.8571372 86.05,11.28 L86.05,14.08 L85.18,14.08 L85.18,11.5 C85.18,10.8 84.88,10.46 84.24,10.46 C83.9490866,10.4440111 83.6652215,10.55319 83.46,10.76 C83.2550961,10.9729949 83.156072,11.2663994 83.19,11.56 L83.19,14.07 L82.33,14.07 L82.33,9.77 L82.33,9.76 Z M90.94,8.69 L90.94,9.79 L91.88,9.79 L91.88,10.5 L90.94,10.5 L90.94,12.72 C90.94,13.17 91.12,13.37 91.55,13.37 L91.88,13.35 L91.88,14.05 C91.73,14.08 91.58,14.1 91.41,14.1 C90.45,14.1 90.07,13.77 90.07,12.93 L90.07,10.5 L89.37,10.5 L89.37,9.78 L90.07,9.78 L90.07,8.69 L90.94,8.69 Z M93.06,8.08 L93.92,8.08 L93.92,10.46 L93.99,10.46 C94.22203,9.94333366 94.7558094,9.6302901 95.32,9.68 C95.7491799,9.65808606 96.1662173,9.82636429 96.46,10.14 C96.7483732,10.4491427 96.884005,10.8707008 96.83,11.29 L96.83,14.07 L95.96,14.07 L95.96,11.5 C95.96,10.81 95.64,10.46 95.03,10.46 C94.7292763,10.4378452 94.4337414,10.5473026 94.22,10.76 C94.0053793,10.9683741 93.8953126,11.2618853 93.92,11.56 L93.92,14.07 L93.06,14.07 L93.06,8.08 Z M101.87,12.91 C101.61345,13.7246804 100.819689,14.2468914 99.97,14.16 C99.3868943,14.1758515 98.8254034,13.9388586 98.43,13.51 C98.0438946,13.0804146 97.8681019,12.5017636 97.95,11.93 C97.8695073,11.3583447 98.0451227,10.7802771 98.43,10.35 C98.8217643,9.91374427 99.3837555,9.66924161 99.97,9.68 C101.18,9.68 101.92,10.5 101.92,11.85 L101.92,12.15 L98.82,12.15 L98.82,12.2 C98.7933867,12.5210896 98.9063402,12.8380882 99.13,13.07 C99.3537075,13.3049878 99.6656028,13.4355487 99.99,13.43 C100.409286,13.4792328 100.817814,13.2749686 101.03,12.91 L101.87,12.91 L101.87,12.91 Z M98.83,11.52 L101.03,11.52 C101.067323,11.0706127 100.807989,10.649195 100.39,10.48 C100.253704,10.4240105 100.107313,10.3967749 99.96,10.4 C99.5009936,10.4006707 99.0871601,10.6765598 98.91,11.1 C98.85,11.23 98.82,11.37 98.83,11.52 L98.83,11.52 Z" fill="#FFFFFF"></path>
    </g>
  </g>
</svg>