
<svg viewBox="0 0 128.502672 37.49405" version="1.1" xmlns="http://www.w3.org/2000/svg" xmlns:xlink="http://www.w3.org/1999/xlink">
  <g stroke="none" stroke-width="1" fill="none" fill-rule="evenodd">
    <path d="M120.923672,0 L7.579302,0 C3.393372,0 0,3.39337 0,7.5793 L0,29.91475 C0,34.10065 3.393372,37.49405 7.579302,37.49405 L120.923672,37.49405 C125.109672,37.49405 128.502672,34.10065 128.502672,29.91475 L128.502672,7.5793 C128.502672,3.39337 125.109672,0 120.923672,0 Z" fill="#171717" fill-rule="nonzero"></path>
    <path d="M27.4072417,11.2368592 C27.4490643,11.1741253 27.4908869,11.1323027 27.5536208,11.0695688 L29.5401953,9.0829943 C30.1884459,8.43474369 31.2549227,8.43474369 31.9240846,9.0829943 C32.5723352,9.73124491 32.5723352,10.7977217 31.9240846,11.4459723 L30.2093572,13.1397884 C31.6940602,14.5408462 32.5723352,16.2764849 32.9278275,18.3257933 C33.1160293,19.4550041 32.760537,19.8941416 31.5058584,19.8941416 L13.2711961,19.8941416 C11.9328723,19.9150529 11.4728234,19.4340928 11.7028478,18.2630594 C12.0792514,16.3810415 12.8529699,14.7708706 14.0449146,13.4743694 L12.1001627,11.5505289 C11.4519121,10.9022783 11.4519121,9.83580146 12.1001627,9.18755085 C12.7484133,8.53930024 13.8148902,8.53930024 14.4840521,9.18755085 L16.4706265,11.1741253 C16.5542718,11.2577705 16.637917,11.3623271 16.7006509,11.4668836 C17.0770545,11.2577705 17.4952807,11.0695688 17.9135069,10.9022783 C21.1965826,9.60577705 24.396013,9.75215622 27.4072417,11.2368592 Z M18.2271766,16.1301058 C18.2271766,16.5901546 17.850773,16.9665582 17.3907242,16.9665582 C16.9306753,16.9665582 16.5542718,16.5901546 16.5542718,16.1301058 C16.5542718,15.670057 16.9306753,15.2936534 17.3907242,15.2936534 C17.850773,15.2936534 18.2271766,15.670057 18.2271766,16.1301058 Z M27.2190399,16.9665582 C27.6790887,16.9665582 28.0554923,16.5901546 28.0554923,16.1301058 C28.0554923,15.670057 27.6790887,15.2936534 27.2190399,15.2936534 C26.758991,15.2936534 26.3825875,15.670057 26.3825875,16.1301058 C26.3825875,16.5901546 26.758991,16.9665582 27.2190399,16.9665582 Z" fill="#A4C639"></path>
    <path d="M12.8947925,29.1369406 C13.33393,29.1369406 13.5639544,28.9069162 13.7312449,28.3423108 L14.0030919,27.5267697 L16.303336,27.5267697 L16.5542718,28.3423108 C16.7215622,28.9069162 16.972498,29.1369406 17.4116355,29.1369406 C17.8925956,29.1369406 18.2062653,28.8650936 18.2062653,28.4259561 C18.2062653,28.2586656 18.1644426,28.0495525 18.0807974,27.7777055 L16.5751831,23.365419 C16.303336,22.5498779 15.9269325,22.2362083 15.1950366,22.2362083 C14.4631408,22.2362083 14.0867372,22.5707893 13.8148902,23.365419 L12.2883645,27.7777055 C12.1628967,28.1122864 12.121074,28.3004882 12.121074,28.4677787 C12.121074,28.8441823 12.4347437,29.1369406 12.8947925,29.1369406 Z M14.3376729,26.3139138 L15.1113914,23.7209113 L15.1950366,23.7209113 L15.9687551,26.3139138 L14.3376729,26.3139138 Z" fill="#A4C639" fill-rule="nonzero"></path>
    <path d="M20.3601302,29.1160293 C20.8829129,29.1160293 21.1965826,28.7814483 21.1965826,28.216843 L21.1965826,26.8785191 L22.304882,26.8785191 C23.8732303,26.8785191 24.8351505,26.0420667 24.8351505,24.5573637 C24.8351505,23.1563059 23.8941416,22.2362083 22.3885273,22.2362083 L20.6319772,22.2362083 C19.8373474,22.2362083 19.5445891,22.5498779 19.5445891,23.365419 L19.5445891,28.216843 C19.5445891,28.8023596 19.8373474,29.1160293 20.3601302,29.1160293 Z M21.1965826,25.6656631 L21.1965826,23.5327095 L22.1375915,23.5327095 C22.8067535,23.5327095 23.183157,23.9300244 23.183157,24.5991863 C23.183157,25.3938161 22.8067535,25.6656631 21.9493897,25.6656631 L21.1965826,25.6656631 L21.1965826,25.6656631 Z" fill="#A4C639" fill-rule="nonzero"></path>
    <path d="M30.9412531,29.1160293 C31.4222132,29.1160293 31.7358828,28.8023596 31.7358828,28.3423108 C31.7358828,28.1122864 31.6522376,27.9449959 31.4013019,27.5895037 L29.6865745,25.2892596 L31.2967453,23.5536208 C31.5267697,23.3235964 31.5895037,23.1563059 31.5895037,22.9471928 C31.5895037,22.5498779 31.275834,22.215297 30.8576078,22.215297 C30.6275834,22.215297 30.4393816,22.3198535 30.2093572,22.5707893 L27.9091131,25.0592352 L27.8045566,25.0592352 L27.8045566,23.093572 C27.8045566,22.5289666 27.5117982,22.1943857 26.9681041,22.1943857 C26.4453214,22.1943857 26.1316517,22.5080553 26.1316517,23.093572 L26.1316517,28.2377543 C26.1316517,28.8023596 26.4453214,29.1369406 26.9890155,29.1369406 C27.5117982,29.1369406 27.8045566,28.823271 27.8045566,28.2377543 L27.8045566,26.9621644 L28.4318959,26.3139138 L30.1048007,28.5932465 C30.3766477,28.9487388 30.6275834,29.1160293 30.9412531,29.1160293 Z" fill="#A4C639" fill-rule="nonzero"></path>
    <path d="M37.8419854,7.84922701 L37.8419854,13.9135069 L40.0376729,13.9135069 C41.0205045,13.9135069 41.7733116,13.6416599 42.2751831,13.0979658 C42.7561432,12.5751831 43.0070789,11.8223759 43.0070789,10.881367 C43.0070789,9.9194467 42.7770545,9.18755085 42.2960944,8.6647681 C41.7733116,8.12107404 41.0414158,7.84922701 40.0585842,7.84922701 L37.8419854,7.84922701 Z M38.7829943,8.64385679 L39.912205,8.64385679 C40.6859235,8.64385679 41.2505289,8.83205858 41.6060212,9.18755085 C41.9406021,9.54304312 42.1288039,10.1076485 42.1288039,10.881367 C42.1288039,11.6550854 41.9406021,12.1987795 41.6060212,12.5751831 C41.2505289,12.9306753 40.6650122,13.1188771 39.912205,13.1188771 L38.8039056,13.1188771 L38.8039056,8.64385679 L38.7829943,8.64385679 Z M45.913751,9.39666395 C45.2445891,9.39666395 44.700895,9.62668836 44.3035801,10.0658259 C43.9062653,10.5049634 43.6971522,11.0486574 43.6971522,11.7178194 C43.6971522,12.3869813 43.8853539,12.9306753 44.2826688,13.3489015 C44.700895,13.7880391 45.2236778,14.0180635 45.8928397,14.0180635 C46.5620016,14.0180635 47.1056957,13.7880391 47.5030106,13.3489015 C47.9003255,12.9306753 48.0885273,12.36607 48.0885273,11.7178194 C48.0885273,11.0486574 47.8794142,10.5049634 47.4820993,10.0658259 C47.126607,9.62668836 46.5829129,9.39666395 45.913751,9.39666395 Z M45.913751,10.1494711 C46.3319772,10.1494711 46.6665582,10.3167616 46.8965826,10.6513426 C47.1056957,10.9231896 47.2102522,11.2995932 47.2102522,11.7387307 C47.2102522,12.1778682 47.1056957,12.5333605 46.8965826,12.8261188 C46.6665582,13.1397884 46.3319772,13.3279902 45.913751,13.3279902 C45.4955248,13.3279902 45.1609439,13.1606998 44.9309194,12.8261188 C44.7218063,12.5542718 44.6381611,12.1987795 44.6381611,11.7387307 C44.6381611,11.2995932 44.7218063,10.9231896 44.9309194,10.6513426 C45.1818552,10.2958503 45.4955248,10.1494711 45.913751,10.1494711 Z M48.5067535,9.52213181 L50.0123678,13.9135069 L50.8488202,13.9135069 L51.7689178,10.6304312 L52.6890155,13.9135069 L53.5254679,13.9135069 L55.0310822,9.52213181 L54.0273393,9.52213181 L53.0863303,12.8470301 L52.187144,9.52213181 L51.3506916,9.52213181 L50.4515053,12.8470301 L49.5104963,9.52213181 L48.5067535,9.52213181 L48.5067535,9.52213181 Z M57.8122864,9.39666395 C57.5404394,9.39666395 57.2895037,9.43848657 57.0594793,9.56395443 C56.8294548,9.66851098 56.6412531,9.83580146 56.4739626,10.0658259 L56.4739626,9.52213181 L55.5747762,9.52213181 L55.5747762,13.9135069 L56.4739626,13.9135069 L56.4739626,11.2786819 C56.5157852,10.9231896 56.6412531,10.6513426 56.8503662,10.4422295 C57.0385679,10.2540277 57.2685924,10.1703824 57.5195281,10.1703824 C58.2096013,10.1703824 58.5441823,10.546786 58.5441823,11.2995932 L58.5441823,13.9344182 L59.4433686,13.9344182 L59.4433686,11.2159479 C59.4642799,10.0030919 58.9205858,9.39666395 57.8122864,9.39666395 Z M60.614402,7.72375915 L60.614402,13.9135069 L61.5135883,13.9135069 L61.5135883,7.72375915 L60.614402,7.72375915 Z M64.6711961,9.39666395 C64.0020342,9.39666395 63.4583401,9.62668836 63.0610252,10.0658259 C62.6637103,10.5049634 62.4545972,11.0486574 62.4545972,11.7178194 C62.4545972,12.3869813 62.642799,12.9306753 63.0401139,13.3489015 C63.4583401,13.7880391 63.9811229,14.0180635 64.6502848,14.0180635 C65.3194467,14.0180635 65.8631408,13.7880391 66.2604557,13.3489015 C66.6577705,12.9306753 66.8459723,12.36607 66.8459723,11.7178194 C66.8459723,11.0486574 66.6368592,10.5049634 66.2395443,10.0658259 C65.8840521,9.62668836 65.340358,9.39666395 64.6711961,9.39666395 Z M64.6711961,10.1494711 C65.0894223,10.1494711 65.4240033,10.3167616 65.6540277,10.6513426 C65.8631408,10.9231896 65.9676973,11.2995932 65.9676973,11.7387307 C65.9676973,12.1778682 65.8631408,12.5333605 65.6540277,12.8261188 C65.4240033,13.1397884 65.0894223,13.3279902 64.6711961,13.3279902 C64.2529699,13.3279902 63.9183889,13.1606998 63.6883645,12.8261188 C63.4792514,12.5542718 63.3956062,12.1987795 63.3956062,11.7387307 C63.3956062,11.2995932 63.4792514,10.9231896 63.6883645,10.6513426 C63.9393002,10.2958503 64.2529699,10.1494711 64.6711961,10.1494711 Z M69.7317331,9.39666395 C69.1880391,9.39666395 68.7489015,9.48030919 68.4143206,9.68942229 C68.037917,9.9194467 67.8078926,10.274939 67.703336,10.7349878 L68.6025224,10.818633 C68.644345,10.5676973 68.7907242,10.4004068 68.978926,10.274939 C69.1462164,10.1703824 69.3762408,10.1285598 69.6689992,10.1285598 C70.3381611,10.1285598 70.6727421,10.4422295 70.6727421,11.0486574 L70.6727421,11.2368592 L69.6899105,11.2577705 C69.0416599,11.2786819 68.5188771,11.4041497 68.1633849,11.6550854 C67.76607,11.9269325 67.5778682,12.303336 67.5778682,12.7842962 C67.5778682,13.1397884 67.7242474,13.4534581 67.9960944,13.6834825 C68.2470301,13.9135069 68.6025224,14.0389748 69.0625712,14.0389748 C69.4598861,14.0389748 69.794467,13.9553295 70.0872254,13.8298617 C70.3381611,13.7043938 70.5472742,13.516192 70.735476,13.3070789 L70.735476,13.9344182 L71.5719284,13.9344182 L71.5719284,11.1323027 C71.5719284,10.5886086 71.4255492,10.1912937 71.1746135,9.9194467 C70.8609439,9.56395443 70.3799837,9.39666395 69.7317331,9.39666395 Z M70.6727421,11.8851098 L70.6727421,12.1360456 C70.6727421,12.4706265 70.5263629,12.7633849 70.2545159,12.9934093 C69.9826688,13.2234337 69.6480879,13.3489015 69.2716843,13.3489015 C69.0416599,13.3489015 68.8534581,13.2861676 68.7070789,13.1816111 C68.5606998,13.0770545 68.4979658,12.9306753 68.4979658,12.7633849 C68.4979658,12.2196908 68.916192,11.9269325 69.7317331,11.9060212 L70.6727421,11.8851098 Z M75.7751017,7.72375915 L75.7751017,10.1703824 C75.4196094,9.64759967 74.9595606,9.39666395 74.4158666,9.39666395 C73.7885273,9.39666395 73.2866558,9.62668836 72.9102522,10.0867372 C72.5756713,10.5049634 72.4083808,11.0486574 72.4083808,11.6969081 C72.4083808,12.36607 72.5756713,12.909764 72.9311635,13.3489015 C73.3075671,13.8089504 73.8094386,14.0389748 74.4576892,14.0389748 C75.0641172,14.0389748 75.524166,13.8089504 75.8169243,13.3907242 L75.8169243,13.9135069 L76.6533767,13.9135069 L76.6533767,7.72375915 L75.7751017,7.72375915 Z M74.645891,10.1285598 C74.9804719,10.1285598 75.252319,10.2540277 75.4823434,10.5258747 C75.7123678,10.818633 75.8169243,11.1950366 75.8169243,11.6759967 L75.8169243,11.759642 C75.8169243,12.1987795 75.7332791,12.5542718 75.5450773,12.8470301 C75.3150529,13.1606998 75.0222945,13.3070789 74.6249797,13.3070789 C74.1858421,13.3070789 73.8512612,13.1397884 73.6421481,12.8261188 C73.4539463,12.5542718 73.3703011,12.1778682 73.3703011,11.6969081 C73.3703011,11.2159479 73.4539463,10.8395443 73.6421481,10.5886086 C73.8512612,10.274939 74.1858421,10.1285598 74.645891,10.1285598 Z" fill="#FAFAFA" fill-rule="nonzero"></path>
    <path d="M39.8076485,25.7493084 L40.3304312,24.0973149 C40.7068348,22.9471928 41.0414158,21.880716 41.3759967,20.66786 L41.4387307,20.66786 C41.7942229,21.8598047 42.1078926,22.9471928 42.4842962,24.0973149 L43.0070789,25.7493084 L39.8076485,25.7493084 Z M44.3035801,29.8270138 L45.5164361,29.8270138 L42.0451587,19.7268511 L40.7904801,19.7268511 L37.3192026,29.8270138 L38.4693247,29.8270138 L39.5148902,26.6484947 L43.2998373,26.6484947 L44.3035801,29.8270138 Z M46.8965826,29.8270138 L48.0257933,29.8270138 L48.0257933,24.3691619 C48.7995118,23.5745321 49.3641172,23.1563059 50.1587469,23.1563059 C51.2043124,23.1563059 51.64345,23.7836452 51.64345,25.2265256 L51.64345,29.8270138 L52.7726607,29.8270138 L52.7726607,25.1010578 C52.7726607,23.1981286 52.0407648,22.1943857 50.4724166,22.1943857 C49.4477624,22.1943857 48.6740439,22.7799024 47.9421481,23.4699756 L47.9003255,23.4699756 L47.7957689,22.3825875 L46.8756713,22.3825875 L46.8756713,29.8270138 L46.8965826,29.8270138 Z M57.8331977,30.0152156 C58.7532954,30.0152156 59.5479251,29.5342555 60.1543531,28.9487388 L60.1752644,28.9487388 L60.279821,29.8479251 L61.1999186,29.8479251 L61.1999186,18.8694874 L60.0707079,18.8694874 L60.0707079,21.7970708 L60.1334418,23.093572 C59.4433686,22.5498779 58.8787632,22.215297 57.9795769,22.215297 C56.2648495,22.215297 54.7174125,23.7418226 54.7174125,26.1466233 C54.7383238,28.6141579 55.9511798,30.0152156 57.8331977,30.0152156 Z M58.0632221,29.0742067 C56.6830757,29.0742067 55.9093572,27.9659072 55.9093572,26.125712 C55.9093572,24.3900732 56.8921888,23.1563059 58.1677787,23.1563059 C58.8160293,23.1563059 59.401546,23.3863303 60.0916192,23.9927583 L60.0916192,28.0286412 C59.4433686,28.6978031 58.795118,29.0742067 58.0632221,29.0742067 Z M63.855655,29.8270138 L64.9848657,29.8270138 L64.9848657,24.9755899 C65.5076485,23.6790887 66.281367,23.2190399 66.9087063,23.2190399 C67.2014646,23.2190399 67.3687551,23.2608625 67.6196908,23.3445077 L67.8497152,22.3616762 C67.5987795,22.2362083 67.3687551,22.1943857 67.0550854,22.1943857 C66.1977217,22.1943857 65.4449146,22.821725 64.9221318,23.7627339 L64.8803092,23.7627339 L64.7757526,22.4034988 L63.855655,22.4034988 L63.855655,29.8270138 Z M71.8228641,30.0152156 C73.6630594,30.0152156 75.2732303,28.5723352 75.2732303,26.125712 C75.2732303,23.6372661 73.6421481,22.1943857 71.8228641,22.1943857 C70.0035801,22.1943857 68.372498,23.6372661 68.372498,26.125712 C68.372498,28.5723352 69.9826688,30.0152156 71.8228641,30.0152156 Z M71.8228641,29.0742067 C70.4845403,29.0742067 69.5435313,27.882262 69.5435313,26.125712 C69.5435313,24.3482506 70.463629,23.1353946 71.8228641,23.1353946 C73.1820993,23.1353946 74.1231082,24.3273393 74.1231082,26.125712 C74.1231082,27.882262 73.1820993,29.0742067 71.8228641,29.0742067 Z M77.3225386,29.8270138 L78.4517494,29.8270138 L78.4517494,22.3825875 L77.3225386,22.3825875 L77.3225386,29.8270138 Z M77.887144,20.7933279 C78.3262815,20.7933279 78.7026851,20.4796583 78.7026851,20.0405207 C78.7026851,19.5595606 78.3262815,19.2668023 77.887144,19.2668023 C77.4061839,19.2668023 77.0716029,19.5595606 77.0716029,20.0405207 C77.0716029,20.4587469 77.4061839,20.7933279 77.887144,20.7933279 Z M83.5750203,30.0152156 C84.495118,30.0152156 85.2897478,29.5342555 85.8961758,28.9487388 L85.9170871,28.9487388 L86.0216436,29.8479251 L86.9417413,29.8479251 L86.9417413,18.8694874 L85.8125305,18.8694874 L85.8125305,21.7970708 L85.8752644,23.093572 C85.1851912,22.5498779 84.6205858,22.215297 83.7213995,22.215297 C82.0066721,22.215297 80.4592352,23.7418226 80.4592352,26.1466233 C80.4801465,28.6141579 81.6930024,30.0152156 83.5750203,30.0152156 Z M83.8050448,29.0742067 C82.4248983,29.0742067 81.6511798,27.9659072 81.6511798,26.125712 C81.6511798,24.3900732 82.6340114,23.1563059 83.9096013,23.1563059 C84.5578519,23.1563059 85.1433686,23.3863303 85.8334418,23.9927583 L85.8334418,28.0286412 C85.1642799,28.6978031 84.5369406,29.0742067 83.8050448,29.0742067 Z M93.9261188,25.7493084 L94.4489015,24.0973149 C94.8253051,22.9471928 95.1598861,21.880716 95.494467,20.66786 L95.557201,20.66786 C95.9126932,21.8598047 96.2263629,22.9471928 96.6027665,24.0973149 L97.1255492,25.7493084 L93.9261188,25.7493084 Z M98.4220504,29.8270138 L99.6349064,29.8270138 L96.163629,19.7268511 L94.9089504,19.7268511 L91.4376729,29.8270138 L92.587795,29.8270138 L93.6333605,26.6484947 L97.4183076,26.6484947 L98.4220504,29.8270138 Z M101.119609,29.8270138 L102.269731,29.8270138 L102.269731,25.7493084 L103.984459,25.7493084 C106.221969,25.7493084 107.706672,24.7455655 107.706672,22.6544345 C107.706672,20.4796583 106.221969,19.7268511 103.921725,19.7268511 L101.098698,19.7268511 L101.098698,29.8270138 L101.119609,29.8270138 Z M102.269731,24.8082994 L102.269731,20.6469487 L103.775346,20.6469487 C105.636452,20.6469487 106.577461,21.1279089 106.577461,22.6544345 C106.577461,24.1600488 105.699186,24.8082994 103.83808,24.8082994 L102.269731,24.8082994 L102.269731,24.8082994 Z M109.818714,29.8270138 L110.968836,29.8270138 L110.968836,26.5648495 L112.78812,24.4318959 L115.903906,29.8061025 L117.200407,29.8061025 L113.540928,23.5327095 L116.740358,19.7059398 L115.422945,19.7059398 L111.03157,24.912856 L111.010659,24.912856 L111.010659,19.7268511 L109.860537,19.7268511 L109.860537,29.8270138 L109.818714,29.8270138 Z" fill="#FAFAFA" fill-rule="nonzero"></path>
    <path d="M120.923672,0 L7.579302,0 C3.393372,0 0,3.39337 0,7.5793 L0,29.91475 C0,34.10065 3.393372,37.49405 7.579302,37.49405 L120.923672,37.49405 C125.109672,37.49405 128.502672,34.10065 128.502672,29.91475 L128.502672,7.5793 C128.502672,3.39337 125.109672,0 120.923672,0 Z" stroke="#797979" stroke-width="0.958192"></path>
  </g>
</svg>