
<svg viewBox="0 0 128.502672 37.49405" version="1.1" xmlns="http://www.w3.org/2000/svg" xmlns:xlink="http://www.w3.org/1999/xlink">
  <g stroke="none" stroke-width="1" fill="none" fill-rule="evenodd">
    <g>
      <path d="M120.923672,0 L7.579302,0 C3.393372,0 0,3.39337 0,7.5793 L0,29.91475 C0,34.10065 3.393372,37.49405 7.579302,37.49405 L120.923672,37.49405 C125.109672,37.49405 128.502672,34.10065 128.502672,29.91475 L128.502672,7.5793 C128.502672,3.39337 125.109672,0 120.923672,0 Z" fill="#171717" fill-rule="nonzero"></path>
      <path d="M45.015672,9.36145 C45.015672,10.16635 44.776072,10.80835 44.296972,11.27785 C43.760372,11.84315 43.060872,12.13065 42.188972,12.13065 C41.316972,12.13065 40.646272,11.84315 40.071372,11.26825 C39.496472,10.69335 39.208972,9.97465 39.208972,9.13145 C39.208972,8.28826 39.496472,7.56961 40.071372,6.9947 C40.646272,6.41978 41.355372,6.12274 42.188972,6.12274 C42.610572,6.12274 43.012972,6.1994 43.386672,6.34313 C43.760372,6.49644 44.066972,6.70724 44.306572,6.97553 L43.779572,7.50254 C43.607072,7.29174 43.377072,7.11926 43.089672,7.00428 C42.811772,6.87972 42.505172,6.82222 42.188972,6.82222 C41.566172,6.82222 41.029572,7.04261 40.598372,7.47379 C40.167172,7.91456 39.956372,8.46073 39.956372,9.12185 C39.956372,9.78305 40.167172,10.32925 40.598372,10.76995 C41.029572,11.20115 41.556572,11.42155 42.188972,11.42155 C42.763872,11.42155 43.233372,11.25865 43.616672,10.94245 C43.999972,10.62625 44.220372,10.17585 44.277772,9.62015 L42.188972,9.62015 L42.188972,8.93025 L44.977272,8.93025 C45.006072,9.08355 45.015672,9.22725 45.015672,9.36145 Z" stroke="#FFFFFF" stroke-width="0.191638" fill="#FFFFFF" fill-rule="nonzero"></path>
      <polygon stroke="#FFFFFF" stroke-width="0.191638" fill="#FFFFFF" fill-rule="nonzero" points="49.429872 6.25696 49.429872 6.96602 46.813972 6.96602 46.813972 8.78655 49.171172 8.78655 49.171172 9.47645 46.813972 9.47645 46.813972 11.29705 49.429872 11.29705 49.429872 12.00615 46.076172 12.00615 46.076172 6.25696"></polygon>
      <polygon stroke="#FFFFFF" stroke-width="0.191638" fill="#FFFFFF" fill-rule="nonzero" points="52.546772 6.96602 52.546772 12.00615 51.808972 12.00615 51.808972 6.96602 50.199172 6.96602 50.199172 6.25696 54.146972 6.25696 54.146972 6.96602 52.537172 6.96602"></polygon>
      <polygon stroke="#FFFFFF" stroke-width="0.191638" fill="#FFFFFF" fill-rule="nonzero" points="57.749572 12.00615 57.011672 12.00615 57.011672 6.25696 57.749572 6.25696"></polygon>
      <polygon stroke="#FFFFFF" stroke-width="0.191638" fill="#FFFFFF" fill-rule="nonzero" points="61.027272 6.96602 61.027272 12.00615 60.289472 12.00615 60.289472 6.96602 58.679672 6.96602 58.679672 6.25696 62.627472 6.25696 62.627472 6.96602 61.017672 6.96602"></polygon>
      <path d="M70.954872,9.13145 C70.954872,9.98425 70.667372,10.69335 70.102072,11.26825 C69.527172,11.84315 68.827672,12.13065 67.993972,12.13065 C67.160372,12.13065 66.460872,11.84315 65.885972,11.26825 C65.320672,10.69335 65.033172,9.98425 65.033172,9.13145 C65.033172,8.27867 65.320672,7.56961 65.885972,6.9947 C66.451372,6.41978 67.150772,6.12274 67.993972,6.12274 C68.837272,6.12274 69.527172,6.4102 70.102072,6.9947 C70.667372,7.56961 70.954872,8.27867 70.954872,9.12185 L70.954872,9.13145 Z M65.799772,9.13145 C65.799772,9.79265 66.010572,10.34835 66.422572,10.77955 C66.844172,11.21075 67.371172,11.43115 67.993972,11.43115 C68.616872,11.43115 69.143872,11.21075 69.555872,10.77955 C69.977472,10.34835 70.188272,9.80225 70.188272,9.13145 C70.188272,8.46073 69.977472,7.91456 69.555872,7.48338 C69.134272,7.05219 68.616872,6.83181 67.993972,6.83181 C67.371172,6.83181 66.844172,7.05219 66.422572,7.48338 C66.000972,7.91456 65.799772,8.47031 65.799772,9.13145 Z" stroke="#FFFFFF" stroke-width="0.191638" fill="#FFFFFF" fill-rule="nonzero"></path>
      <polygon stroke="#FFFFFF" stroke-width="0.191638" fill="#FFFFFF" fill-rule="nonzero" points="72.728072 12.00615 71.990272 12.00615 71.990272 6.25696 72.890972 6.25696 75.688872 10.73175 75.717572 10.73175 75.688872 9.62025 75.688872 6.25696 76.426672 6.25696 76.426672 12.00615 75.660072 12.00615 72.737672 7.32055 72.708872 7.32055 72.737672 8.43206 72.737672 12.01565"></polygon>
      <path d="M64.871472,20.39035 C62.619772,20.39035 60.779972,22.10555 60.779972,24.46265 C60.779972,26.81985 62.619772,28.53495 64.871472,28.53495 C67.123272,28.53495 68.962972,26.81025 68.962972,24.46265 C68.962972,22.11505 67.123272,20.39035 64.871472,20.39035 Z M64.871472,26.93475 C63.635372,26.93475 62.571772,25.91915 62.571772,24.46265 C62.571772,23.00625 63.635372,21.99055 64.871472,21.99055 C66.107572,21.99055 67.171172,22.99665 67.171172,24.46265 C67.171172,25.92865 66.107572,26.93475 64.871472,26.93475 Z M55.950672,20.39035 C53.698972,20.39035 51.859272,22.10555 51.859272,24.46265 C51.859272,26.81985 53.698972,28.53495 55.950672,28.53495 C58.202472,28.53495 60.042172,26.81025 60.042172,24.46265 C60.042172,22.11505 58.202472,20.39035 55.950672,20.39035 Z M55.950672,26.93475 C54.714672,26.93475 53.651072,25.91915 53.651072,24.46265 C53.651072,23.00625 54.714672,21.99055 55.950672,21.99055 C57.186772,21.99055 58.250372,22.99665 58.250372,24.46265 C58.250372,25.92865 57.186772,26.93475 55.950672,26.93475 Z M45.333972,21.63595 L45.333972,23.36075 L49.473372,23.36075 C49.348772,24.32855 49.022972,25.04715 48.534272,25.53585 C47.930672,26.13945 46.991572,26.80065 45.343572,26.80065 C42.794772,26.80065 40.801672,24.75015 40.801672,22.20135 C40.801672,19.65255 42.794772,17.60205 45.343572,17.60205 C46.713772,17.60205 47.719872,18.13855 48.457672,18.83805 L49.674572,17.62115 C48.639672,16.63425 47.269472,15.87725 45.333972,15.87725 C41.846172,15.87725 38.914072,18.71355 38.914072,22.21095 C38.914072,25.70835 41.846172,28.54455 45.333972,28.54455 C47.221572,28.54455 48.639672,27.93135 49.751172,26.77195 C50.891472,25.63165 51.245972,24.02185 51.245972,22.72835 C51.245972,22.32585 51.217272,21.95215 51.150172,21.64555 L45.333972,21.64555 L45.333972,21.63595 Z M88.749672,22.97745 C88.414272,22.06715 87.379372,20.38075 85.261772,20.38075 C83.144172,20.38075 81.419472,22.02885 81.419472,24.45305 C81.419472,26.73355 83.144172,28.52535 85.463072,28.52535 C87.331472,28.52535 88.414272,27.38515 88.855072,26.72395 L87.465672,25.79455 C87.005672,26.47485 86.373272,26.92525 85.463072,26.92525 C84.552772,26.92525 83.901172,26.51315 83.489172,25.68915 L88.941272,23.43735 L88.759172,22.97745 L88.749672,22.97745 Z M83.192072,24.33805 C83.144172,22.76665 84.408972,21.96175 85.319272,21.96175 C86.028372,21.96175 86.631972,22.31635 86.833272,22.82415 L83.192072,24.33805 Z M78.765272,28.28585 L80.557072,28.28585 L80.557072,16.30845 L78.765272,16.30845 L78.765272,28.28585 Z M75.833172,21.29105 L75.775672,21.29105 C75.373272,20.81195 74.606672,20.38075 73.629372,20.38075 C71.588372,20.38075 69.719972,22.17255 69.719972,24.47225 C69.719972,26.77195 71.588372,28.53495 73.629372,28.53495 C74.597172,28.53495 75.373272,28.10375 75.775672,27.60555 L75.833172,27.60555 L75.833172,28.19005 C75.833172,29.75185 74.999572,30.58555 73.658072,30.58555 C72.565772,30.58555 71.885472,29.79975 71.607572,29.13865 L70.045672,29.79025 C70.496072,30.87295 71.684272,32.19525 73.658072,32.19525 C75.756572,32.19525 77.529172,30.95925 77.529172,27.95045 L77.529172,20.62985 L75.833172,20.62985 L75.833172,21.29105 Z M73.782672,26.92525 C72.546572,26.92525 71.511772,25.89035 71.511772,24.47225 C71.511772,23.05415 72.546572,21.99055 73.782672,21.99055 C75.018772,21.99055 75.957772,23.04455 75.957772,24.47225 C75.957772,25.89995 74.999572,26.92525 73.782672,26.92525 Z M97.143372,16.30845 L92.860272,16.30845 L92.860272,28.28585 L94.652072,28.28585 L94.652072,23.74405 L97.152972,23.74405 C99.136472,23.74405 101.081672,22.30675 101.081672,20.02625 C101.081672,17.74575 99.136472,16.30845 97.152972,16.30845 L97.143372,16.30845 Z M97.191272,22.08635 L94.652072,22.08635 L94.652072,17.97565 L97.191272,17.97565 C98.532772,17.97565 99.289672,19.08725 99.289672,20.02625 C99.289672,20.96525 98.532772,22.07675 97.191272,22.07675 L97.191272,22.08635 Z M108.239672,20.36155 C106.945672,20.36155 105.604672,20.93655 105.048672,22.19175 L106.638672,22.85285 C106.974672,22.19175 107.606672,21.97135 108.267672,21.97135 C109.187672,21.97135 110.136672,22.52715 110.145672,23.51405 L110.145672,23.63865 C109.820672,23.45655 109.130672,23.17865 108.277672,23.17865 C106.562672,23.17865 104.827672,24.11775 104.827672,25.87125 C104.827672,27.47135 106.226672,28.50625 107.798672,28.50625 C108.996672,28.50625 109.666672,27.96965 110.078672,27.33725 L110.136672,27.33725 L110.136672,28.25715 L111.861672,28.25715 L111.861672,23.66735 C111.861672,21.54015 110.270672,20.35205 108.219672,20.35205 L108.239672,20.36155 Z M108.018672,26.92525 C107.434672,26.92525 106.619672,26.62815 106.619672,25.90955 C106.619672,24.98965 107.635672,24.63515 108.516672,24.63515 C109.302672,24.63515 109.676672,24.80765 110.145672,25.03755 C110.011672,26.14905 109.053672,26.93475 108.018672,26.93475 L108.018672,26.92525 Z M118.156672,20.62035 L116.105672,25.81375 L116.048672,25.81375 L113.921672,20.62035 L111.995672,20.62035 L115.185672,27.88345 L113.365672,31.91735 L115.233672,31.91735 L120.149672,20.62035 L118.165672,20.62035 L118.156672,20.62035 Z M102.049672,28.28585 L103.840672,28.28585 L103.840672,16.30845 L102.049672,16.30845 L102.049672,28.28585 Z" fill="#FFFFFF" fill-rule="nonzero"></path>
      <path d="M19.427372,18.15775 L9.222652,28.98535 C9.538872,30.16395 10.612072,31.02625 11.886472,31.02625 C12.394272,31.02625 12.873372,30.89215 13.285372,30.64305 L13.314172,30.62385 L24.793272,24.00275 L19.417772,18.14815 L19.427372,18.15775 Z" fill="#EA4335" fill-rule="nonzero"></path>
      <path d="M29.750872,16.31795 L29.741272,16.31795 L24.787472,13.43385 L19.201172,18.40685 L24.806572,24.01225 L29.741272,21.16645 C30.603672,20.69695 31.188172,19.78665 31.188172,18.74225 C31.188172,17.69775 30.613272,16.78755 29.750872,16.32755 L29.750872,16.31795 Z" fill="#FBBC04" fill-rule="nonzero"></path>
      <path d="M9.226682,8.44159 C9.169192,8.67156 9.130862,8.90155 9.130862,9.15065 L9.130862,28.28575 C9.130862,28.53485 9.159602,28.76485 9.226682,28.99485 L19.776372,18.44515 L9.226682,8.44159 Z" fill="#4285F4" fill-rule="nonzero"></path>
      <path d="M19.504072,18.71345 L24.783672,13.43385 L13.314172,6.784 C12.902072,6.53487 12.413472,6.39115 11.886472,6.39115 C10.612072,6.39115 9.538872,7.2631 9.222652,8.4321 L19.504072,18.70395 L19.504072,18.71345 Z" fill="#34A853" fill-rule="nonzero"></path>
      <path d="M120.923672,0 L7.579302,0 C3.393372,0 0,3.39337 0,7.5793 L0,29.91475 C0,34.10065 3.393372,37.49405 7.579302,37.49405 L120.923672,37.49405 C125.109672,37.49405 128.502672,34.10065 128.502672,29.91475 L128.502672,7.5793 C128.502672,3.39337 125.109672,0 120.923672,0 Z" stroke="#797979" stroke-width="0.958192"></path>
    </g>
  </g>
</svg>