<svg width="140" height="38" viewBox="0 0 140 38" fill="none" xmlns="http://www.w3.org/2000/svg">
<g>
<path d="M61.6021 24.6801H54.9301L53.8261 27.8721H50.2981L56.3221 11.0961H60.2341L66.2581 27.8721H62.7061L61.6021 24.6801ZM60.6901 21.9921L58.2661 14.9841L55.8421 21.9921H60.6901ZM70.2138 12.9921C69.6218 12.9921 69.1258 12.8081 68.7258 12.4401C68.3418 12.0561 68.1498 11.5841 68.1498 11.0241C68.1498 10.4641 68.3418 10.0001 68.7258 9.63207C69.1258 9.24807 69.6218 9.05607 70.2138 9.05607C70.8058 9.05607 71.2938 9.24807 71.6778 9.63207C72.0778 10.0001 72.2778 10.4641 72.2778 11.0241C72.2778 11.5841 72.0778 12.0561 71.6778 12.4401C71.2938 12.8081 70.8058 12.9921 70.2138 12.9921ZM71.8698 14.5761V27.8721H68.5098V14.5761H71.8698ZM78.5494 16.6401C78.9814 15.9361 79.5414 15.3841 80.2294 14.9841C80.9334 14.5841 81.7334 14.3841 82.6294 14.3841V17.9121H81.7414C80.6854 17.9121 79.8854 18.1601 79.3414 18.6561C78.8134 19.1521 78.5494 20.0161 78.5494 21.2481V27.8721H75.1894V14.5761H78.5494V16.6401ZM97.3726 30.8241L94.8286 27.7761C94.1246 27.9521 93.4046 28.0401 92.6686 28.0401C91.1006 28.0401 89.6606 27.6721 88.3486 26.9361C87.0366 26.2001 85.9966 25.1841 85.2286 23.8881C84.4606 22.5761 84.0766 21.0961 84.0766 19.4481C84.0766 17.8161 84.4606 16.3521 85.2286 15.0561C85.9966 13.7441 87.0366 12.7201 88.3486 11.9841C89.6606 11.2481 91.1006 10.8801 92.6686 10.8801C94.2526 10.8801 95.6926 11.2481 96.9886 11.9841C98.3006 12.7201 99.3326 13.7441 100.085 15.0561C100.853 16.3521 101.237 17.8161 101.237 19.4481C101.237 20.9361 100.917 22.2961 100.277 23.5281C99.6526 24.7441 98.7966 25.7361 97.7086 26.5041L101.549 30.8241H97.3726ZM87.5326 19.4481C87.5326 20.5681 87.7486 21.5521 88.1806 22.4001C88.6126 23.2481 89.2126 23.9041 89.9806 24.3681C90.7646 24.8161 91.6606 25.0401 92.6686 25.0401C93.6766 25.0401 94.5646 24.8161 95.3326 24.3681C96.1006 23.9041 96.7006 23.2481 97.1326 22.4001C97.5646 21.5521 97.7806 20.5681 97.7806 19.4481C97.7806 18.3281 97.5646 17.3521 97.1326 16.5201C96.7006 15.6721 96.1006 15.0241 95.3326 14.5761C94.5646 14.1281 93.6766 13.9041 92.6686 13.9041C91.6606 13.9041 90.7646 14.1281 89.9806 14.5761C89.2126 15.0241 88.6126 15.6721 88.1806 16.5201C87.7486 17.3521 87.5326 18.3281 87.5326 19.4481ZM119.774 24.6801H113.102L111.998 27.8721H108.47L114.494 11.0961H118.406L124.43 27.8721H120.878L119.774 24.6801ZM118.862 21.9921L116.438 14.9841L114.014 21.9921H118.862ZM130.042 11.1201V27.8721H126.682V11.1201H130.042Z" fill="#FFFFFF"/>
<path fill-rule="evenodd" clip-rule="evenodd" d="M24.661 5.27552C24.1027 3.14899 23.2758 0 20.7638 0C19.6172 0 13.6755 1.67613 13.6755 18.9784C13.6755 36.0479 19.8257 37.7442 20.7638 37.7442C21.5977 37.7442 23.4727 37.1075 24.6193 32.0185C24.5861 32.0554 24.5547 32.0915 24.5241 32.1267C24.2032 32.4955 23.9725 32.7607 22.6401 32.7607C20.7638 32.7607 18.5748 26.4189 18.5748 18.9784C18.5748 11.9804 20.4511 4.66495 22.6401 4.66495C23.3685 4.66495 24.0588 4.77097 24.7236 5.51312L24.661 5.27552ZM15.5532 1.90896C11.4183 3.35792 4.19003 8.80034 4.1897 18.9784C4.18936 29.1692 12.0438 34.1749 15.5532 35.4118C9.19321 29.4745 5.09668 13.0412 15.5532 1.90896ZM28.4789 1.90896C32.5443 1.90896 33.6895 13.536 33.7938 18.9784C33.7938 31.9555 30.2496 36.0479 28.4789 36.0479C23.7868 36.0479 22.6401 22.4766 22.6401 18.9784C22.6401 14.737 23.7317 1.90896 28.4789 1.90896ZM36.8167 13.6768C36.0871 13.6768 35.3574 15.4803 35.3574 18.9784C35.3574 22.4766 36.1913 24.597 36.8167 24.597C37.4422 24.597 38.2761 22.5826 38.2761 18.9784C38.2761 15.5852 37.5464 13.6768 36.8167 13.6768ZM29.4186 9.33044C27.3338 9.33044 26.2914 15.4808 26.2914 18.979C26.2914 22.4771 27.3338 28.4143 29.4186 28.4143C31.5034 28.4143 32.1288 21.6301 32.1288 18.979C32.1288 16.3279 31.5034 9.33044 29.4186 9.33044Z" fill="#FFFFFF"/>
</g>
</svg>
