<svg viewBox="0 0 88 88" fill="none" xmlns="http://www.w3.org/2000/svg">
<g>
<g>
<rect x="0.333496" width="88" height="88" rx="10" fill="white"/>
<g clip-path="url(#clip0_89_3199)">
<g>
<path fill-rule="evenodd" clip-rule="evenodd" d="M36.0002 29C34.2321 29 32.5364 29.7024 31.2861 30.9526C30.0359 32.2029 29.3335 33.8986 29.3335 35.6667C29.3335 37.4348 30.0359 39.1305 31.2861 40.3807C32.5364 41.631 34.2321 42.3333 36.0002 42.3333C37.7683 42.3333 39.464 41.631 40.7142 40.3807C41.9645 39.1305 42.6668 37.4348 42.6668 35.6667C42.6668 33.8986 41.9645 32.2029 40.7142 30.9526C39.464 29.7024 37.7683 29 36.0002 29ZM36.0002 45.6667C34.2321 45.6667 32.5364 46.369 31.2861 47.6193C30.0359 48.8695 29.3335 50.5652 29.3335 52.3333C29.3335 54.1014 30.0359 55.7971 31.2861 57.0474C32.5364 58.2976 34.2321 59 36.0002 59C37.7683 59 39.464 58.2976 40.7142 57.0474C41.9645 55.7971 42.6668 54.1014 42.6668 52.3333C42.6668 50.5652 41.9645 48.8695 40.7142 47.6193C39.464 46.369 37.7683 45.6667 36.0002 45.6667ZM46.0002 35.6667C46.0002 33.8986 46.7025 32.2029 47.9528 30.9526C49.203 29.7024 50.8987 29 52.6668 29C54.4349 29 56.1306 29.7024 57.3809 30.9526C58.6311 32.2029 59.3335 33.8986 59.3335 35.6667C59.3335 37.4348 58.6311 39.1305 57.3809 40.3807C56.1306 41.631 54.4349 42.3333 52.6668 42.3333C50.8987 42.3333 49.203 41.631 47.9528 40.3807C46.7025 39.1305 46.0002 37.4348 46.0002 35.6667ZM52.6668 45.6667C50.8987 45.6667 49.203 46.369 47.9528 47.6193C46.7025 48.8695 46.0002 50.5652 46.0002 52.3333C46.0002 54.1014 46.7025 55.7971 47.9528 57.0474C49.203 58.2976 50.8987 59 52.6668 59C54.4349 59 56.1306 58.2976 57.3809 57.0474C58.6311 55.7971 59.3335 54.1014 59.3335 52.3333C59.3335 50.5652 58.6311 48.8695 57.3809 47.6193C56.1306 46.369 54.4349 45.6667 52.6668 45.6667Z" fill="#2B2B2B"/>
</g>
</g>
</g>
</g>
<defs>
<clipPath id="clip0_89_3199">
<rect width="40" height="40" fill="white" transform="translate(24.3335 24)"/>
</clipPath>
</defs>
</svg>
