<svg viewBox="0 0 108 108" version="1.1" xmlns="http://www.w3.org/2000/svg" xmlns:xlink="http://www.w3.org/1999/xlink">
  <g transform="translate(-151.074, -114)" fill="currentColor">
    <path d="M215.935873,129.095167 C214.166562,123.010426 211.546738,114 203.587754,114 C199.954754,114 181.129108,118.79607 181.129108,168.304294 C181.129108,217.146126 200.615261,222 203.587754,222 C206.230062,222 212.170605,220.178292 215.803744,205.616669 C215.698263,205.722263 215.598749,205.825574 215.501873,205.926097 C214.485088,206.981651 213.754213,207.7402 209.532739,207.7402 C203.587754,207.7402 196.652077,189.593979 196.652077,168.304294 C196.652077,148.280463 202.596923,127.348122 209.532739,127.348122 C211.840421,127.348122 214.027632,127.651466 216.133928,129.774996 C216.068974,129.553034 216.003048,129.326256 215.935873,129.095167 Z M187.078256,119.462209 C173.977333,123.60824 151.07511,139.181049 151.074,168.304294 C151.073028,197.463793 175.959134,211.786722 187.078256,215.326066 C166.927293,198.337443 153.947673,151.315671 187.078256,119.462209 Z M228.032364,119.462209 C240.913164,119.462209 244.541861,152.731485 244.872185,168.304294 C244.872185,205.436286 233.642862,217.146126 228.032364,217.146126 C213.165738,217.146126 209.532739,178.313738 209.532739,168.304294 C209.532739,156.167897 212.991278,119.462209 228.032364,119.462209 Z M254.450169,153.134337 C252.138185,153.134337 249.826339,158.294723 249.826339,168.304294 C249.826339,178.313738 252.468508,184.380986 254.450169,184.380986 C256.431831,184.380986 259.074,178.617081 259.074,168.304294 C259.074,158.594898 256.762154,153.134337 254.450169,153.134337 Z M231.001386,140.696245 C224.395894,140.696245 221.093217,158.29485 221.093217,168.304294 C221.093217,178.313738 224.395894,195.302234 231.001386,195.302234 C237.606879,195.302234 239.58854,175.890033 239.58854,168.304294 C239.58854,160.718428 237.606879,140.696245 231.001386,140.696245 Z"></path>
  </g>
</svg>