<svg viewBox="0 0 88 88" fill="none" xmlns="http://www.w3.org/2000/svg">
<g>
<g>
<rect x="-0.333252" width="88" height="88" rx="10" fill="white"/>
<g>
<path d="M31.1667 59C30.5001 59 29.9167 58.75 29.4167 58.25C28.9167 57.75 28.6667 57.1667 28.6667 56.5V50.5833C28.6667 50.2292 28.7873 49.9322 29.0284 49.6925C29.2692 49.4531 29.5679 49.3333 29.9242 49.3333C30.2804 49.3333 30.5765 49.4531 30.8126 49.6925C31.0487 49.9322 31.1667 50.2292 31.1667 50.5833V56.5H37.0834C37.4376 56.5 37.7345 56.6206 37.9742 56.8617C38.2137 57.1025 38.3334 57.4011 38.3334 57.7575C38.3334 58.1136 38.2137 58.4097 37.9742 58.6458C37.7345 58.8819 37.4376 59 37.0834 59H31.1667ZM56.1667 59H50.2501C49.8959 59 49.5991 58.8794 49.3597 58.6383C49.1199 58.3975 49.0001 58.0989 49.0001 57.7425C49.0001 57.3864 49.1199 57.0902 49.3597 56.8542C49.5991 56.6181 49.8959 56.5 50.2501 56.5H56.1667V50.5833C56.1667 50.2292 56.2873 49.9322 56.5284 49.6925C56.7692 49.4531 57.0678 49.3333 57.4242 49.3333C57.7803 49.3333 58.0765 49.4531 58.3126 49.6925C58.5487 49.9322 58.6667 50.2292 58.6667 50.5833V56.5C58.6667 57.1667 58.4167 57.75 57.9167 58.25C57.4167 58.75 56.8334 59 56.1667 59ZM28.6667 37.4167V31.5C28.6667 30.8333 28.9167 30.25 29.4167 29.75C29.9167 29.25 30.5001 29 31.1667 29H37.0834C37.4376 29 37.7345 29.1206 37.9742 29.3617C38.2137 29.6025 38.3334 29.9011 38.3334 30.2575C38.3334 30.6136 38.2137 30.9097 37.9742 31.1458C37.7345 31.3819 37.4376 31.5 37.0834 31.5H31.1667V37.4167C31.1667 37.7708 31.0462 38.0677 30.8051 38.3071C30.5642 38.5468 30.2656 38.6667 29.9092 38.6667C29.5531 38.6667 29.257 38.5468 29.0209 38.3071C28.7848 38.0677 28.6667 37.7708 28.6667 37.4167ZM56.1667 37.4167V31.5H50.2501C49.8959 31.5 49.5991 31.3794 49.3597 31.1383C49.1199 30.8975 49.0001 30.5989 49.0001 30.2425C49.0001 29.8864 49.1199 29.5903 49.3597 29.3542C49.5991 29.1181 49.8959 29 50.2501 29H56.1667C56.8334 29 57.4167 29.25 57.9167 29.75C58.4167 30.25 58.6667 30.8333 58.6667 31.5V37.4167C58.6667 37.7708 58.5462 38.0677 58.3051 38.3071C58.0642 38.5468 57.7657 38.6667 57.4092 38.6667C57.0532 38.6667 56.757 38.5468 56.5209 38.3071C56.2848 38.0677 56.1667 37.7708 56.1667 37.4167ZM43.6667 49.9583C41.9167 49.9583 40.4862 49.4027 39.3751 48.2917C38.264 47.1806 37.7084 45.75 37.7084 44C37.7084 42.25 38.264 40.8194 39.3751 39.7083C40.4862 38.5973 41.9167 38.0417 43.6667 38.0417C45.4167 38.0417 46.8473 38.5973 47.9584 39.7083C49.0695 40.8194 49.6251 42.25 49.6251 44C49.6251 45.75 49.0695 47.1806 47.9584 48.2917C46.8473 49.4027 45.4167 49.9583 43.6667 49.9583Z" fill="#2B2B2B"/>
</g>
</g>
</g>
</svg>
