<svg width="1280" height="640" viewBox="0 0 1280 640" fill="none" xmlns="http://www.w3.org/2000/svg">
<g id="Group 1312317802">
<g id="Vector">
<path d="M0 -0.041791V106.799H106.826V-0.041791H0Z" fill="#303030"/>
<path d="M0 -0.041791C0 13.9887 2.76313 27.8818 8.13166 40.8442C13.5002 53.8067 21.369 65.5847 31.2887 75.5057C41.2084 85.4268 52.9849 93.2966 65.9457 98.6658C78.9064 104.035 92.7977 106.799 106.826 106.799V-0.041791H0Z" fill="#313131"/>
<path d="M106.826 106.799V-0.041791H213.653V106.799H106.826Z" fill="#2B2B2B"/>
<path d="M133.537 53.3784C133.537 68.1299 145.494 80.0884 160.243 80.0884C174.993 80.0884 186.95 68.1299 186.95 53.3784C186.95 38.6268 174.993 26.6683 160.243 26.6683C145.494 26.6683 133.537 38.6268 133.537 53.3784Z" fill="#313131"/>
<path d="M0 213.639H106.826V106.799H0V213.639Z" fill="#2B2B2B"/>
<path d="M106.826 213.639V106.799H213.653V213.639H106.826Z" fill="#303030"/>
<path d="M106.826 213.639C106.826 199.608 109.589 185.715 114.958 172.753C120.327 159.79 128.195 148.012 138.115 138.091C148.035 128.17 159.811 120.3 172.772 114.931C185.733 109.562 199.624 106.799 213.653 106.799V213.639H106.826Z" fill="#2B2B2B"/>
<path d="M0 427.319V534.16H106.826V427.319H0Z" fill="#303030"/>
<path d="M0 427.319C0 441.35 2.76313 455.243 8.13166 468.205C13.5002 481.168 21.369 492.946 31.2887 502.867C41.2084 512.788 52.9849 520.658 65.9457 526.027C78.9064 531.396 92.7977 534.16 106.826 534.16V427.319H0Z" fill="#313131"/>
<path d="M106.826 534.16V427.319H213.653V534.16H106.826Z" fill="#2B2B2B"/>
<path d="M133.537 480.74C133.537 495.491 145.494 507.45 160.243 507.45C174.993 507.45 186.95 495.491 186.95 480.74C186.95 465.988 174.993 454.029 160.243 454.029C145.494 454.029 133.537 465.988 133.537 480.74Z" fill="#313131"/>
<path d="M0 641H106.826V534.16H0V641Z" fill="#2B2B2B"/>
<path d="M106.826 641V534.16H213.653V641H106.826Z" fill="#303030"/>
<path d="M106.826 641C106.826 626.97 109.589 613.076 114.958 600.114C120.327 587.152 128.195 575.374 138.115 565.453C148.035 555.531 159.811 547.662 172.772 542.292C185.733 536.923 199.624 534.16 213.653 534.16V641H106.826Z" fill="#2B2B2B"/>
<path d="M0 213.639V320.479H106.826V213.639H0Z" fill="#303030"/>
<path d="M0 213.639C0 227.669 2.76313 241.562 8.13166 254.525C13.5002 267.487 21.369 279.265 31.2887 289.186C41.2084 299.107 52.9849 306.977 65.9457 312.346C78.9064 317.716 92.7977 320.479 106.826 320.479V213.639H0Z" fill="#313131"/>
<path d="M106.826 320.479V213.639H213.653V320.479H106.826Z" fill="#2B2B2B"/>
<path d="M133.537 267.059C133.537 281.811 145.494 293.769 160.243 293.769C174.993 293.769 186.95 281.811 186.95 267.059C186.95 252.307 174.993 240.349 160.243 240.349C145.494 240.349 133.537 252.307 133.537 267.059Z" fill="#313131"/>
<path d="M0 427.319H106.826V320.479H0V427.319Z" fill="#2B2B2B"/>
<path d="M106.826 427.319V320.479H213.653V427.319H106.826Z" fill="#303030"/>
<path d="M106.826 427.319C106.826 413.289 109.589 399.396 114.958 386.433C120.327 373.471 128.195 361.693 138.115 351.772C148.035 341.851 159.811 333.981 172.772 328.612C185.733 323.243 199.624 320.479 213.653 320.479V427.319H106.826Z" fill="#2B2B2B"/>
<path d="M427.305 -0.041791V106.799H534.132V-0.041791H427.305Z" fill="#303030"/>
<path d="M427.305 -0.041791C427.305 13.9887 430.069 27.8818 435.437 40.8442C440.806 53.8067 448.674 65.5847 458.594 75.5057C468.514 85.4268 480.29 93.2966 493.251 98.6658C506.212 104.035 520.103 106.799 534.132 106.799V-0.041791H427.305Z" fill="#313131"/>
<path d="M534.132 106.799V-0.041791H640.958V106.799H534.132Z" fill="#2B2B2B"/>
<path d="M560.842 53.3784C560.842 68.1299 572.799 80.0884 587.549 80.0884C602.298 80.0884 614.255 68.1299 614.255 53.3784C614.255 38.6268 602.298 26.6683 587.549 26.6683C572.799 26.6683 560.842 38.6268 560.842 53.3784Z" fill="#313131"/>
<path d="M427.305 213.639H534.132V106.799H427.305V213.639Z" fill="#2B2B2B"/>
<path d="M534.132 213.639V106.799H640.958V213.639H534.132Z" fill="#303030"/>
<path d="M534.132 213.639C534.132 199.608 536.895 185.715 542.263 172.753C547.632 159.79 555.501 148.012 565.42 138.091C575.34 128.17 587.117 120.3 600.077 114.931C613.038 109.562 626.929 106.799 640.958 106.799V213.639H534.132Z" fill="#2B2B2B"/>
<path d="M427.305 427.319V534.16H534.132V427.319H427.305Z" fill="#303030"/>
<path d="M427.305 427.319C427.305 441.35 430.069 455.243 435.437 468.205C440.806 481.168 448.674 492.946 458.594 502.867C468.514 512.788 480.29 520.658 493.251 526.027C506.212 531.396 520.103 534.16 534.132 534.16V427.319H427.305Z" fill="#313131"/>
<path d="M534.132 534.16V427.319H640.958V534.16H534.132Z" fill="#2B2B2B"/>
<path d="M560.842 480.74C560.842 495.491 572.799 507.45 587.549 507.45C602.298 507.45 614.255 495.491 614.255 480.74C614.255 465.988 602.298 454.029 587.549 454.029C572.799 454.029 560.842 465.988 560.842 480.74Z" fill="#313131"/>
<path d="M427.305 641H534.132V534.16H427.305V641Z" fill="#2B2B2B"/>
<path d="M534.132 641V534.16H640.958V641H534.132Z" fill="#303030"/>
<path d="M534.132 641C534.132 626.97 536.895 613.076 542.263 600.114C547.632 587.152 555.501 575.374 565.42 565.453C575.34 555.531 587.117 547.662 600.077 542.292C613.038 536.923 626.929 534.16 640.958 534.16V641H534.132Z" fill="#2B2B2B"/>
<path d="M427.305 213.639V320.479H534.132V213.639H427.305Z" fill="#303030"/>
<path d="M427.305 213.639C427.305 227.669 430.069 241.562 435.437 254.525C440.806 267.487 448.674 279.265 458.594 289.186C468.514 299.107 480.29 306.977 493.251 312.346C506.212 317.716 520.103 320.479 534.132 320.479V213.639H427.305Z" fill="#313131"/>
<path d="M534.132 320.479V213.639H640.958V320.479H534.132Z" fill="#2B2B2B"/>
<path d="M560.842 267.059C560.842 281.811 572.799 293.769 587.549 293.769C602.298 293.769 614.255 281.811 614.255 267.059C614.255 252.307 602.298 240.349 587.549 240.349C572.799 240.349 560.842 252.307 560.842 267.059Z" fill="#313131"/>
<path d="M427.305 427.319H534.132V320.479H427.305V427.319Z" fill="#2B2B2B"/>
<path d="M534.132 427.319V320.479H640.958V427.319H534.132Z" fill="#303030"/>
<path d="M534.132 427.319C534.132 413.289 536.895 399.396 542.263 386.433C547.632 373.471 555.501 361.693 565.42 351.772C575.34 341.851 587.117 333.981 600.077 328.612C613.038 323.243 626.929 320.479 640.958 320.479V427.319H534.132Z" fill="#2B2B2B"/>
<path d="M854.611 -0.041791V106.799H961.437V-0.041791H854.611Z" fill="#303030"/>
<path d="M854.611 -0.041791C854.611 13.9887 857.374 27.8818 862.742 40.8442C868.111 53.8067 875.98 65.5847 885.899 75.5057C895.819 85.4268 907.596 93.2966 920.556 98.6658C933.517 104.035 947.408 106.799 961.437 106.799V-0.041791H854.611Z" fill="#313131"/>
<path d="M961.437 106.799V-0.041791H1068.26V106.799H961.437Z" fill="#2B2B2B"/>
<path d="M988.147 53.3784C988.147 68.1299 1000.1 80.0884 1014.85 80.0884C1029.6 80.0884 1041.56 68.1299 1041.56 53.3784C1041.56 38.6268 1029.6 26.6683 1014.85 26.6683C1000.1 26.6683 988.147 38.6268 988.147 53.3784Z" fill="#313131"/>
<path d="M854.611 213.639H961.437V106.799H854.611V213.639Z" fill="#2B2B2B"/>
<path d="M961.437 213.639V106.799H1068.26V213.639H961.437Z" fill="#303030"/>
<path d="M961.437 213.639C961.437 199.608 964.2 185.715 969.569 172.753C974.937 159.79 982.806 148.012 992.726 138.091C1002.65 128.17 1014.42 120.3 1027.38 114.931C1040.34 109.562 1054.23 106.799 1068.26 106.799V213.639H961.437Z" fill="#2B2B2B"/>
<path d="M854.611 427.319V534.16H961.437V427.319H854.611Z" fill="#303030"/>
<path d="M854.611 427.319C854.611 441.35 857.374 455.243 862.742 468.205C868.111 481.168 875.98 492.946 885.899 502.867C895.819 512.788 907.596 520.658 920.556 526.027C933.517 531.396 947.408 534.16 961.437 534.16V427.319H854.611Z" fill="#313131"/>
<path d="M961.437 534.16V427.319H1068.26V534.16H961.437Z" fill="#2B2B2B"/>
<path d="M988.147 480.74C988.147 495.491 1000.1 507.45 1014.85 507.45C1029.6 507.45 1041.56 495.491 1041.56 480.74C1041.56 465.988 1029.6 454.029 1014.85 454.029C1000.1 454.029 988.147 465.988 988.147 480.74Z" fill="#313131"/>
<path d="M854.611 641H961.437V534.16H854.611V641Z" fill="#2B2B2B"/>
<path d="M961.437 641V534.16H1068.26V641H961.437Z" fill="#303030"/>
<path d="M961.437 641C961.437 626.97 964.2 613.076 969.569 600.114C974.937 587.152 982.806 575.374 992.726 565.453C1002.65 555.531 1014.42 547.662 1027.38 542.292C1040.34 536.923 1054.23 534.16 1068.26 534.16V641H961.437Z" fill="#2B2B2B"/>
<path d="M854.611 213.639V320.479H961.437V213.639H854.611Z" fill="#303030"/>
<path d="M854.611 213.639C854.611 227.669 857.374 241.562 862.742 254.525C868.111 267.487 875.98 279.265 885.899 289.186C895.819 299.107 907.596 306.977 920.556 312.346C933.517 317.716 947.408 320.479 961.437 320.479V213.639H854.611Z" fill="#313131"/>
<path d="M961.437 320.479V213.639H1068.26V320.479H961.437Z" fill="#2B2B2B"/>
<path d="M988.147 267.059C988.147 281.811 1000.1 293.769 1014.85 293.769C1029.6 293.769 1041.56 281.811 1041.56 267.059C1041.56 252.307 1029.6 240.349 1014.85 240.349C1000.1 240.349 988.147 252.307 988.147 267.059Z" fill="#313131"/>
<path d="M854.611 427.319H961.437V320.479H854.611V427.319Z" fill="#2B2B2B"/>
<path d="M961.437 427.319V320.479H1068.26V427.319H961.437Z" fill="#303030"/>
<path d="M961.437 427.319C961.437 413.289 964.2 399.396 969.569 386.433C974.937 373.471 982.806 361.693 992.726 351.772C1002.65 341.851 1014.42 333.981 1027.38 328.612C1040.34 323.243 1054.23 320.479 1068.26 320.479V427.319H961.437Z" fill="#2B2B2B"/>
<path d="M213.653 640.042V533.202H320.479V640.042H213.653Z" fill="#303030"/>
<path d="M213.653 640.042C213.653 626.011 216.416 612.118 221.784 599.156C227.153 586.193 235.022 574.415 244.941 564.494C254.861 554.573 266.638 546.703 279.598 541.334C292.559 535.965 306.45 533.202 320.479 533.202V640.042H213.653Z" fill="#313131"/>
<path d="M320.479 533.202V640.042H427.305V533.202H320.479Z" fill="#2B2B2B"/>
<path d="M347.189 586.622C347.189 571.87 359.146 559.912 373.896 559.912C388.646 559.912 400.602 571.87 400.602 586.622C400.602 601.373 388.646 613.332 373.896 613.332C359.146 613.332 347.189 601.373 347.189 586.622Z" fill="#313131"/>
<path d="M213.653 426.361H320.479V533.202H213.653V426.361Z" fill="#2B2B2B"/>
<path d="M320.479 426.361V533.202H427.305V426.361H320.479Z" fill="#303030"/>
<path d="M320.479 426.361C320.479 440.392 323.242 454.285 328.611 467.247C333.979 480.21 341.848 491.988 351.768 501.909C361.687 511.83 373.464 519.7 386.425 525.069C399.385 530.438 413.277 533.202 427.305 533.202V426.361H320.479Z" fill="#2B2B2B"/>
<path d="M213.653 212.681V105.84H320.479V212.681H213.653Z" fill="#303030"/>
<path d="M213.653 212.681C213.653 198.65 216.416 184.757 221.784 171.795C227.153 158.832 235.022 147.054 244.941 137.133C254.861 127.212 266.638 119.342 279.598 113.973C292.559 108.604 306.45 105.84 320.479 105.84V212.681H213.653Z" fill="#313131"/>
<path d="M320.479 105.84V212.681H427.305V105.84H320.479Z" fill="#2B2B2B"/>
<path d="M347.189 159.26C347.189 144.509 359.146 132.55 373.896 132.55C388.646 132.55 400.602 144.509 400.602 159.26C400.602 174.012 388.646 185.971 373.896 185.971C359.146 185.971 347.189 174.012 347.189 159.26Z" fill="#313131"/>
<path d="M213.653 -1H320.479V105.84H213.653V-1Z" fill="#2B2B2B"/>
<path d="M320.479 -1V105.84H427.305V-1H320.479Z" fill="#303030"/>
<path d="M320.479 -1C320.479 13.0305 323.242 26.9236 328.611 39.886C333.979 52.8485 341.848 64.6265 351.768 74.5475C361.687 84.4685 373.464 92.3383 386.425 97.7076C399.385 103.077 413.277 105.84 427.305 105.84V-1H320.479Z" fill="#2B2B2B"/>
<path d="M213.653 426.361V319.521H320.479V426.361H213.653Z" fill="#303030"/>
<path d="M213.653 426.361C213.653 412.331 216.416 398.438 221.784 385.475C227.153 372.513 235.022 360.735 244.941 350.814C254.861 340.893 266.638 333.023 279.598 327.654C292.559 322.284 306.45 319.521 320.479 319.521V426.361H213.653Z" fill="#313131"/>
<path d="M320.479 319.521V426.361H427.305V319.521H320.479Z" fill="#2B2B2B"/>
<path d="M347.189 372.941C347.189 358.189 359.146 346.231 373.896 346.231C388.646 346.231 400.602 358.189 400.602 372.941C400.602 387.693 388.646 399.651 373.896 399.651C359.146 399.651 347.189 387.693 347.189 372.941Z" fill="#313131"/>
<path d="M213.653 212.681H320.479V319.521H213.653V212.681Z" fill="#2B2B2B"/>
<path d="M320.479 212.681V319.521H427.305V212.681H320.479Z" fill="#303030"/>
<path d="M320.479 212.681C320.479 226.711 323.242 240.604 328.611 253.567C333.979 266.529 341.848 278.307 351.768 288.228C361.687 298.149 373.464 306.019 386.425 311.388C399.385 316.757 413.277 319.521 427.305 319.521V212.681H320.479Z" fill="#2B2B2B"/>
<path d="M640.958 641V534.16H747.784V641H640.958Z" fill="#303030"/>
<path d="M640.958 641C640.958 626.97 643.721 613.076 649.09 600.114C654.458 587.152 662.327 575.374 672.247 565.453C682.167 555.531 693.943 547.662 706.904 542.292C719.865 536.923 733.756 534.16 747.784 534.16V641H640.958Z" fill="#313131"/>
<path d="M747.784 534.16V641H854.611V534.16H747.784Z" fill="#2B2B2B"/>
<path d="M774.495 587.58C774.495 572.828 786.452 560.87 801.201 560.87C815.951 560.87 827.908 572.828 827.908 587.58C827.908 602.331 815.951 614.29 801.201 614.29C786.452 614.29 774.495 602.331 774.495 587.58Z" fill="#313131"/>
<path d="M640.958 427.319H747.784V534.16H640.958V427.319Z" fill="#2B2B2B"/>
<path d="M747.784 427.319V534.16H854.611V427.319H747.784Z" fill="#303030"/>
<path d="M747.784 427.319C747.784 441.35 750.548 455.243 755.916 468.205C761.285 481.168 769.153 492.946 779.073 502.867C788.993 512.788 800.769 520.658 813.73 526.027C826.691 531.396 840.582 534.16 854.611 534.16V427.319H747.784Z" fill="#2B2B2B"/>
<path d="M640.958 213.639V106.799H747.784V213.639H640.958Z" fill="#303030"/>
<path d="M640.958 213.639C640.958 199.608 643.721 185.715 649.09 172.753C654.458 159.79 662.327 148.012 672.247 138.091C682.167 128.17 693.943 120.3 706.904 114.931C719.865 109.562 733.756 106.799 747.784 106.799V213.639H640.958Z" fill="#313131"/>
<path d="M747.784 106.799V213.639H854.611V106.799H747.784Z" fill="#2B2B2B"/>
<path d="M774.495 160.219C774.495 145.467 786.452 133.509 801.201 133.509C815.951 133.509 827.908 145.467 827.908 160.219C827.908 174.97 815.951 186.929 801.201 186.929C786.452 186.929 774.495 174.97 774.495 160.219Z" fill="#313131"/>
<path d="M640.958 -0.041791H747.784V106.799H640.958V-0.041791Z" fill="#2B2B2B"/>
<path d="M747.784 -0.041791V106.799H854.611V-0.041791H747.784Z" fill="#303030"/>
<path d="M747.784 -0.041791C747.784 13.9887 750.548 27.8818 755.916 40.8442C761.285 53.8067 769.153 65.5847 779.073 75.5057C788.993 85.4268 800.769 93.2966 813.73 98.6658C826.691 104.035 840.582 106.799 854.611 106.799V-0.041791H747.784Z" fill="#2B2B2B"/>
<path d="M640.958 427.319V320.479H747.784V427.319H640.958Z" fill="#303030"/>
<path d="M640.958 427.319C640.958 413.289 643.721 399.396 649.09 386.433C654.458 373.471 662.327 361.693 672.247 351.772C682.167 341.851 693.943 333.981 706.904 328.612C719.865 323.243 733.756 320.479 747.784 320.479V427.319H640.958Z" fill="#313131"/>
<path d="M747.784 320.479V427.319H854.611V320.479H747.784Z" fill="#2B2B2B"/>
<path d="M774.495 373.899C774.495 359.148 786.452 347.189 801.201 347.189C815.951 347.189 827.908 359.148 827.908 373.899C827.908 388.651 815.951 400.609 801.201 400.609C786.452 400.609 774.495 388.651 774.495 373.899Z" fill="#313131"/>
<path d="M640.958 213.639H747.784V320.479H640.958V213.639Z" fill="#2B2B2B"/>
<path d="M747.784 213.639V320.479H854.611V213.639H747.784Z" fill="#303030"/>
<path d="M747.784 213.639C747.784 227.669 750.548 241.562 755.916 254.525C761.285 267.487 769.153 279.265 779.073 289.186C788.993 299.107 800.769 306.977 813.73 312.346C826.691 317.716 840.582 320.479 854.611 320.479V213.639H747.784Z" fill="#2B2B2B"/>
<path d="M1066.35 640.042V533.202H1173.17V640.042H1066.35Z" fill="#303030"/>
<path d="M1066.35 640.042C1066.35 626.011 1069.11 612.118 1074.48 599.156C1079.85 586.193 1087.72 574.415 1097.64 564.494C1107.56 554.573 1119.33 546.703 1132.29 541.334C1145.25 535.965 1159.14 533.202 1173.17 533.202V640.042H1066.35Z" fill="#313131"/>
<path d="M1173.17 533.202V640.042H1280V533.202H1173.17Z" fill="#2B2B2B"/>
<path d="M1199.88 586.622C1199.88 571.87 1211.84 559.912 1226.59 559.912C1241.34 559.912 1253.3 571.87 1253.3 586.622C1253.3 601.373 1241.34 613.332 1226.59 613.332C1211.84 613.332 1199.88 601.373 1199.88 586.622Z" fill="#313131"/>
<path d="M1066.35 426.361H1173.17V533.202H1066.35V426.361Z" fill="#2B2B2B"/>
<path d="M1173.17 426.361V533.202H1280V426.361H1173.17Z" fill="#303030"/>
<path d="M1173.17 426.361C1173.17 440.392 1175.94 454.285 1181.31 467.247C1186.67 480.21 1194.54 491.988 1204.46 501.909C1214.38 511.83 1226.16 519.7 1239.12 525.069C1252.08 530.438 1265.97 533.202 1280 533.202V426.361H1173.17Z" fill="#2B2B2B"/>
<path d="M1066.35 212.681V105.84H1173.17V212.681H1066.35Z" fill="#303030"/>
<path d="M1066.35 212.681C1066.35 198.65 1069.11 184.757 1074.48 171.795C1079.85 158.832 1087.72 147.054 1097.64 137.133C1107.56 127.212 1119.33 119.342 1132.29 113.973C1145.25 108.604 1159.14 105.84 1173.17 105.84V212.681H1066.35Z" fill="#313131"/>
<path d="M1173.17 105.84V212.681H1280V105.84H1173.17Z" fill="#2B2B2B"/>
<path d="M1199.88 159.26C1199.88 144.509 1211.84 132.55 1226.59 132.55C1241.34 132.55 1253.3 144.509 1253.3 159.26C1253.3 174.012 1241.34 185.971 1226.59 185.971C1211.84 185.971 1199.88 174.012 1199.88 159.26Z" fill="#313131"/>
<path d="M1066.35 -1H1173.17V105.84H1066.35V-1Z" fill="#2B2B2B"/>
<path d="M1173.17 -1V105.84H1280V-1H1173.17Z" fill="#303030"/>
<path d="M1173.17 -1C1173.17 13.0305 1175.94 26.9236 1181.31 39.886C1186.67 52.8485 1194.54 64.6265 1204.46 74.5475C1214.38 84.4685 1226.16 92.3383 1239.12 97.7076C1252.08 103.077 1265.97 105.84 1280 105.84V-1H1173.17Z" fill="#2B2B2B"/>
<path d="M1066.35 426.361V319.521H1173.17V426.361H1066.35Z" fill="#303030"/>
<path d="M1066.35 426.361C1066.35 412.331 1069.11 398.438 1074.48 385.475C1079.85 372.513 1087.72 360.735 1097.64 350.814C1107.56 340.893 1119.33 333.023 1132.29 327.654C1145.25 322.284 1159.14 319.521 1173.17 319.521V426.361H1066.35Z" fill="#313131"/>
<path d="M1173.17 319.521V426.361H1280V319.521H1173.17Z" fill="#2B2B2B"/>
<path d="M1199.88 372.941C1199.88 358.189 1211.84 346.231 1226.59 346.231C1241.34 346.231 1253.3 358.189 1253.3 372.941C1253.3 387.693 1241.34 399.651 1226.59 399.651C1211.84 399.651 1199.88 387.693 1199.88 372.941Z" fill="#313131"/>
<path d="M1066.35 212.681H1173.17V319.521H1066.35V212.681Z" fill="#2B2B2B"/>
<path d="M1173.17 212.681V319.521H1280V212.681H1173.17Z" fill="#303030"/>
<path d="M1173.17 212.681C1173.17 226.711 1175.94 240.604 1181.31 253.567C1186.67 266.529 1194.54 278.307 1204.46 288.228C1214.38 298.149 1226.16 306.019 1239.12 311.388C1252.08 316.757 1265.97 319.521 1280 319.521V212.681H1173.17Z" fill="#2B2B2B"/>
</g>
</g>
</svg>
